#!OML:ASF G:\JayActor3\Patient Classification 1\Patient 1\Session 6\male.ASF
:FULLY-SPECIFIED
:DEGREES
985
root 4.6878 16.086 -14.8835 362.512 -28.7796 -354.001
lowerback 17.8599 -2.75761 3.12122
upperback 6.3819 -3.07512 2.54271
thorax -3.16363 -1.56376 1.54517
lowerneck 12.7284 0.980141 5.61989
upperneck -8.50293 1.5108 -7.04225
head -4.52291 1.00529 -3.21627
rclavicle -7.95139e-016 5.40694e-014
rhumerus -32.9645 11 -86.7435
rradius 121.32
rwrist 17.1684
rhand 9.99935 -14.573
rfingers 7.12502
rthumb 35.1257 -41.0996
lclavicle -7.95139e-016 5.40694e-014
lhumerus -43.974 -0.114052 86.8193
lradius 127.579
lwrist 4.10989
lhand 2.18466 35.324
lfingers 7.12502
lthumb 27.6812 63.307
rfemur -42.1024 1.52332 9.3628
rtibia 37.0727
rfoot -22.8782 -17.3215
rtoes -10.7218
lfemur 4.74901 18.9784 -24.658
ltibia 25.1561
lfoot -13.3777 -7.4593
ltoes -14.2855
986
root 4.59868 16.1108 -14.7943 362.72 -28.8921 -353.938
lowerback 17.7946 -2.7449 3.21706
upperback 6.30914 -3.03986 2.58904
thorax -3.20903 -1.54594 1.53222
lowerneck 12.5986 0.996074 5.63574
upperneck -8.65853 1.5116 -7.14401
head -4.54833 1.00994 -3.25146
rclavicle -6.36111e-015 1.43125e-014
rhumerus -32.9321 11.0587 -86.7511
rradius 121.272
rwrist 17.217
rhand 10.0541 -14.5853
rfingers 7.12502
rthumb 35.1777 -41.0997
lclavicle -6.36111e-015 1.43125e-014
lhumerus -43.9 -0.131493 86.7796
lradius 127.518
lwrist 4.01023
lhand 2.09497 35.2608
lfingers 7.12502
lthumb 27.5954 63.2575
rfemur -42.0171 1.19673 9.58879
rtibia 37.2537
rfoot -22.6592 -17.3372
rtoes -10.2961
lfemur 4.39595 19.1839 -24.4523
ltibia 25.9666
lfoot -12.4677 -7.58276
ltoes -14.7429
987
root 4.50818 16.1363 -14.7064 362.931 -28.9568 -353.878
lowerback 17.7297 -2.73874 3.30216
upperback 6.24114 -3.01478 2.64263
thorax -3.24855 -1.53331 1.53495
lowerneck 12.4734 1.0025 5.64392
upperneck -8.80433 1.50005 -7.23278
head -4.57245 1.00798 -3.28039
rclavicle 7.87187e-014 -6.04305e-014
rhumerus -32.917 11.1064 -86.7408
rradius 121.246
rwrist 17.2493
rhand 10.0798 -14.588
rfingers 7.12502
rthumb 35.202 -41.0966
lclavicle 7.87187e-014 -6.04305e-014
lhumerus -43.7712 -0.14659 86.7587
lradius 127.443
lwrist 3.87915
lhand 2.10054 35.1631
lfingers 7.12502
lthumb 27.6007 63.1589
rfemur -41.9075 0.856798 9.81365
rtibia 37.3961
rfoot -22.4226 -17.377
rtoes -9.7438
lfemur 3.87114 19.4863 -24.207
ltibia 27.0612
lfoot -11.4689 -7.76196
ltoes -15.0128
988
root 4.41627 16.1629 -14.6199 363.144 -28.9684 -353.827
lowerback 17.6738 -2.74095 3.38496
upperback 6.17412 -3.00027 2.69987
thorax -3.2913 -1.52594 1.54542
lowerneck 12.3523 0.998249 5.66145
upperneck -8.92972 1.47752 -7.31301
head -4.59167 0.99976 -3.30716
rclavicle 2.54444e-014 -1.43125e-014
rhumerus -32.9234 11.1351 -86.7218
rradius 121.239
rwrist 17.2597
rhand 10.0685 -14.5818
rfingers 7.12502
rthumb 35.1913 -41.093
lclavicle 2.54444e-014 -1.43125e-014
lhumerus -43.5929 -0.158569 86.7541
lradius 127.355
lwrist 3.73377
lhand 2.13676 35.075
lfingers 7.12502
lthumb 27.6354 63.0654
rfemur -41.7684 0.515989 10.0394
rtibia 37.4922
rfoot -22.1535 -17.4203
rtoes -9.11813
lfemur 3.18148 19.8688 -23.9198
ltibia 28.4278
lfoot -10.3711 -7.96061
ltoes -15.1267
989
root 4.3229 16.1906 -14.535 363.357 -28.9238 -353.793
lowerback 17.638 -2.75189 3.48056
upperback 6.10416 -2.99354 2.75617
thorax -3.34832 -1.52234 1.55047
lowerneck 12.2374 0.980883 5.69919
upperneck -9.02837 1.44333 -7.38195
head -4.60442 0.984385 -3.3326
rclavicle 3.26007e-014 1.11319e-014
rhumerus -32.961 11.1326 -86.6999
rradius 121.253
rwrist 17.2404
rhand 10.0182 -14.57
rfingers 7.12502
rthumb 35.1436 -41.0924
lclavicle 3.26007e-014 1.11319e-014
lhumerus -43.3854 -0.20548 86.7617
lradius 127.273
lwrist 3.62385
lhand 2.19402 34.9839
lfingers 7.12502
lthumb 27.6901 62.9654
rfemur -41.5947 0.196265 10.2683
rtibia 37.5459
rfoot -21.8588 -17.4471
rtoes -8.44361
lfemur 2.34099 20.3189 -23.5815
ltibia 30.0496
lfoot -9.16515 -8.15418
ltoes -15.028
990
root 4.22827 16.2182 -14.4518 363.56 -28.8302 -353.774
lowerback 17.6401 -2.77429 3.58047
upperback 6.02746 -2.99827 2.81137
thorax -3.43266 -1.52448 1.55651
lowerneck 12.1306 0.958984 5.7482
upperneck -9.09396 1.40826 -7.43653
head -4.60843 0.96727 -3.35492
rclavicle 2.54444e-014 0
rhumerus -33.0321 11.1182 -86.6805
rradius 121.284
rwrist 17.194
rhand 9.95724 -14.5604
rfingers 7.12502
rthumb 35.0858 -41.0963
lclavicle 2.54444e-014 0
lhumerus -43.1842 -0.3029 86.7634
lradius 127.215
lwrist 3.55203
lhand 2.18619 34.925
lfingers 7.12502
lthumb 27.6826 62.9078
rfemur -41.3847 -0.0916091 10.4983
rtibia 37.5709
rfoot -21.5343 -17.4406
rtoes -7.78912
lfemur 1.37234 20.8094 -23.2018
ltibia 31.9053
lfoot -7.88572 -8.30228
ltoes -14.7025
991
root 4.1325 16.2449 -14.3704 363.744 -28.6963 -353.769
lowerback 17.6862 -2.80739 3.68864
upperback 5.94716 -3.01276 2.85857
thorax -3.54475 -1.53148 1.55398
lowerneck 12.0308 0.933437 5.81
upperneck -9.12804 1.37429 -7.47156
head -4.60392 0.949006 -3.37291
rclavicle -3.18055e-015 -2.70347e-014
rhumerus -33.1269 11.0867 -86.67
rradius 121.325
rwrist 17.1219
rhand 9.90884 -14.5553
rfingers 7.12502
rthumb 35.0399 -41.1021
lclavicle -3.18055e-015 -2.70347e-014
lhumerus -43.006 -0.462185 86.7471
lradius 127.199
lwrist 3.55153
lhand 2.14189 34.8706
lfingers 7.12502
lthumb 27.6403 62.8601
rfemur -41.1397 -0.336969 10.7273
rtibia 37.5857
rfoot -21.1903 -17.3924
rtoes -7.19796
lfemur 0.30053 21.3237 -22.7843
ltibia 33.9703
lfoot -6.58635 -8.38825
ltoes -14.1122
992
root 4.03609 16.2696 -14.2908 363.904 -28.5367 -353.776
lowerback 17.7837 -2.8514 3.80435
upperback 5.86434 -3.03698 2.89501
thorax -3.68762 -1.5434 1.5408
lowerneck 11.9394 0.909809 5.87495
upperneck -9.13442 1.3475 -7.48453
head -4.59194 0.932811 -3.38467
rclavicle 3.97569e-015 3.18055e-015
rhumerus -33.2406 11.0561 -86.6711
rradius 121.373
rwrist 17.0291
rhand 9.86108 -14.563
rfingers 7.12502
rthumb 34.9946 -41.1203
lclavicle 3.97569e-015 3.18055e-015
lhumerus -42.8521 -0.656752 86.7035
lradius 127.221
lwrist 3.61226
lhand 2.03049 34.8355
lfingers 7.12502
lthumb 27.5337 62.842
rfemur -40.8675 -0.532685 10.9532
rtibia 37.6089
rfoot -20.8355 -17.3146
rtoes -6.68946
lfemur -0.849221 21.8452 -22.3365
ltibia 36.2157
lfoot -5.33296 -8.405
ltoes -13.251
993
root 3.93957 16.2918 -14.2133 364.043 -28.372 -353.797
lowerback 17.9232 -2.89877 3.90747
upperback 5.78943 -3.06513 2.9332
thorax -3.84345 -1.55758 1.53957
lowerneck 11.8533 0.891704 5.92618
upperneck -9.1262 1.32869 -7.47954
head -4.57606 0.919941 -3.38893
rclavicle 1.90833e-014 1.59028e-014
rhumerus -33.3485 11.0464 -86.6634
rradius 121.423
rwrist 16.9203
rhand 9.82139 -14.5821
rfingers 7.12502
rthumb 34.9569 -41.1482
lclavicle 1.90833e-014 1.59028e-014
lhumerus -42.7173 -0.865777 86.6427
lradius 127.287
lwrist 3.71312
lhand 1.86895 34.8072
lfingers 7.12502
lthumb 27.3793 62.8382
rfemur -40.5846 -0.683451 11.1829
rtibia 37.6543
rfoot -20.4703 -17.2148
rtoes -6.21671
lfemur -2.06011 22.351 -21.8693
ltibia 38.6108
lfoot -4.20084 -8.32848
ltoes -12.22
994
root 3.84351 16.3109 -14.1381 364.167 -28.2169 -353.837
lowerback 18.0907 -2.94249 4.00339
upperback 5.7277 -3.08836 2.97163
thorax -3.99967 -1.56955 1.5429
lowerneck 11.7768 0.874507 5.97311
upperneck -9.11554 1.31192 -7.46515
head -4.56098 0.907804 -3.38979
rclavicle 3.81667e-014 3.81667e-014
rhumerus -33.4348 11.0509 -86.643
rradius 121.47
rwrist 16.8007
rhand 9.78402 -14.6063
rfingers 7.12502
rthumb 34.9215 -41.1807
lclavicle 3.81667e-014 3.81667e-014
lhumerus -42.5732 -1.06626 86.5671
lradius 127.379
lwrist 3.84255
lhand 1.70988 34.7638
lfingers 7.12502
lthumb 27.2271 62.8188
rfemur -40.3078 -0.795118 11.4235
rtibia 37.7309
rfoot -20.0897 -17.1192
rtoes -5.75326
lfemur -3.32222 22.8305 -21.3887
ltibia 41.1255
lfoot -3.26692 -8.12454
ltoes -11.178
995
root 3.74834 16.3268 -14.0649 364.287 -28.0806 -353.907
lowerback 18.276 -2.98034 4.09761
upperback 5.6837 -3.10344 3.01813
thorax -4.14572 -1.57772 1.55459
lowerneck 11.7103 0.860201 5.99889
upperneck -9.11017 1.29705 -7.43871
head -4.54933 0.896783 -3.38374
rclavicle -4.77083e-015 9.54166e-015
rhumerus -33.4859 11.0765 -86.599
rradius 121.514
rwrist 16.6721
rhand 9.75535 -14.6366
rfingers 7.12502
rthumb 34.8943 -41.2173
lclavicle -4.77083e-015 9.54166e-015
lhumerus -42.3952 -1.22281 86.4946
lradius 127.482
lwrist 3.97814
lhand 1.55687 34.72
lfingers 7.12502
lthumb 27.0807 62.7979
rfemur -40.0459 -0.879533 11.6897
rtibia 37.8404
rfoot -19.6926 -17.0376
rtoes -5.24073
lfemur -4.62264 23.2632 -20.8968
ltibia 43.7313
lfoot -2.59024 -7.82558
ltoes -10.1275
996
root 3.65456 16.3395 -13.9939 364.404 -27.9758 -354.004
lowerback 18.478 -3.0071 4.18675
upperback 5.65753 -3.10429 3.07167
thorax -4.28073 -1.5791 1.57395
lowerneck 11.6585 0.846187 6.01077
upperneck -9.11417 1.28096 -7.40829
head -4.54319 0.885673 -3.37442
rclavicle 4.77083e-015 -4.29375e-014
rhumerus -33.4982 11.1187 -86.5323
rradius 121.552
rwrist 16.5489
rhand 9.72404 -14.6708
rfingers 7.12502
rthumb 34.8646 -41.2584
lclavicle 4.77083e-015 -4.29375e-014
lhumerus -42.1875 -1.34149 86.426
lradius 127.593
lwrist 4.10311
lhand 1.41098 34.6648
lfingers 7.12502
lthumb 26.9411 62.7643
rfemur -39.807 -0.948117 11.9846
rtibia 37.9822
rfoot -19.2605 -16.9722
rtoes -4.69125
lfemur -5.95496 23.6386 -20.4059
ltibia 46.4047
lfoot -2.21678 -7.46579
ltoes -9.26684
997
root 3.56274 16.3496 -13.9248 364.521 -27.9037 -354.129
lowerback 18.6935 -3.02205 4.27728
upperback 5.64787 -3.08891 3.13275
thorax -4.40458 -1.57271 1.5972
lowerneck 11.6226 0.83177 6.00783
upperneck -9.1227 1.26232 -7.37847
head -4.54138 0.874155 -3.36297
rclavicle 2.70347e-014 -9.54166e-015
rhumerus -33.4716 11.1728 -86.4376
rradius 121.584
rwrist 16.4359
rhand 9.69885 -14.7025
rfingers 7.12502
rthumb 34.8407 -41.2956
lclavicle 2.70347e-014 -9.54166e-015
lhumerus -41.96 -1.43558 86.3657
lradius 127.714
lwrist 4.21366
lhand 1.27546 34.5874
lfingers 7.12502
lthumb 26.8115 62.7069
rfemur -39.5923 -1.0165 12.3132
rtibia 38.1516
rfoot -18.7838 -16.9125
rtoes -4.09775
lfemur -7.32081 23.9278 -19.9251
ltibia 49.1288
lfoot -2.12943 -7.13431
ltoes -8.60889
998
root 3.47334 16.3572 -13.8572 364.637 -27.8615 -354.283
lowerback 18.9237 -3.02849 4.37224
upperback 5.65152 -3.0608 3.20014
thorax -4.52145 -1.56026 1.62217
lowerneck 11.6057 0.817587 5.99951
upperneck -9.12885 1.24334 -7.35546
head -4.54201 0.8634 -3.35296
rclavicle 1.03368e-014 -1.43125e-014
rhumerus -33.4118 11.2414 -86.3215
rradius 121.61
rwrist 16.339
rhand 9.66682 -14.7403
rfingers 7.12502
rthumb 34.8103 -41.3404
lclavicle 1.03368e-014 -1.43125e-014
lhumerus -41.7302 -1.52396 86.3103
lradius 127.846
lwrist 4.30574
lhand 1.10135 34.514
lfingers 7.12502
lthumb 26.6448 62.6589
rfemur -39.3989 -1.10667 12.6796
rtibia 38.344
rfoot -18.2553 -16.844
rtoes -3.45293
lfemur -8.72108 24.125 -19.4554
ltibia 51.8947
lfoot -2.30031 -6.97033
ltoes -8.24244
999
root 3.38709 16.3627 -13.7908 364.758 -27.8453 -354.474
lowerback 19.1721 -3.03158 4.49938
upperback 5.66633 -3.02134 3.26673
thorax -4.63706 -1.54246 1.6262
lowerneck 11.6058 0.803143 5.99243
upperneck -9.12373 1.22546 -7.33306
head -4.54192 0.853451 -3.34347
rclavicle 3.73715e-014 -1.74931e-014
rhumerus -33.3262 11.3103 -86.1989
rradius 121.629
rwrist 16.2609
rhand 9.63831 -14.7748
rfingers 7.12502
rthumb 34.7832 -41.3812
lclavicle 3.73715e-014 -1.74931e-014
lhumerus -41.5091 -1.61184 86.25
lradius 127.986
lwrist 4.37056
lhand 0.918698 34.4161
lfingers 7.12502
lthumb 26.47 62.5874
rfemur -39.2236 -1.21407 13.0855
rtibia 38.5563
rfoot -17.7075 -16.7397
rtoes -2.66992
lfemur -10.1637 24.2466 -18.9811
ltibia 54.7008
lfoot -2.67095 -7.11168
ltoes -8.15063
